<svg width="257" height="339" viewBox="0 0 257 339" fill="none" xmlns="http://www.w3.org/2000/svg">
<g filter="url(#filter0_d_12_106)">
<path d="M129 108C183.676 108 228 152.324 228 207C228 261.676 183.676 306 129 306C74.3238 306 30 261.676 30 207C30 152.324 74.3238 108 129 108ZM160.998 149.248C160.717 149.187 160.454 149.283 160.271 149.371C160.075 149.465 159.866 149.601 159.66 149.74L159.649 149.748L149.801 156.815L138.174 154.107L138.159 154.104L138.145 154.102C137.751 154.034 137.398 154.004 137.102 154.043C136.796 154.084 136.488 154.208 136.294 154.504C136.115 154.778 136.098 155.103 136.126 155.389C136.147 155.609 136.201 155.855 136.273 156.121L136.353 156.395L136.354 156.397L138.667 163.857L138.672 163.874L138.679 163.891C138.802 164.206 138.836 164.378 138.828 164.508C138.822 164.616 138.782 164.742 138.65 164.948L65.6875 223.339L66.2344 224.171L147.388 181.13C147.715 181.143 147.926 181.173 148.104 181.241C148.294 181.314 148.488 181.445 148.752 181.731L155.318 189.322C155.604 189.684 155.869 189.98 156.125 190.186C156.377 190.388 156.689 190.558 157.047 190.529C157.418 190.5 157.687 190.269 157.879 190.018C158.07 189.767 158.237 189.428 158.396 189.037L158.403 189.021L158.408 189.004L162.408 176.817L173.048 171.676C173.607 171.457 174.056 171.245 174.38 171.023C174.695 170.808 174.992 170.516 175.047 170.109C175.103 169.691 174.878 169.347 174.638 169.094C174.389 168.833 174.032 168.571 173.612 168.3L173.589 168.286L163.301 162.417L161.822 150.667H161.821C161.784 150.326 161.726 150.03 161.623 149.8C161.513 149.556 161.32 149.319 160.998 149.248ZM153.5 203C151.567 203 150 204.567 150 206.5C150 208.433 151.567 210 153.5 210C155.433 210 157 208.433 157 206.5C157 204.567 155.433 203 153.5 203ZM184.49 175.808C183.323 178.616 182.233 180.501 180.793 181.925C179.356 183.345 177.533 184.343 174.832 185.307L173.455 185.798L174.845 186.253C177.75 187.205 179.516 188.365 180.871 189.918C182.244 191.492 183.221 193.494 184.5 196.213L185.033 197.346L185.427 196.157C186.434 193.123 187.297 191.019 188.554 189.486C189.791 187.977 191.446 186.982 194.13 186.261L195.618 185.86L194.179 185.311C191.397 184.248 189.658 183.138 188.396 181.695C187.127 180.245 186.303 178.418 185.426 175.839L184.999 174.585L184.49 175.808ZM63.5 182C61.567 182 60 183.567 60 185.5C60 187.433 61.567 189 63.5 189C65.433 189 67 187.433 67 185.5C67 183.567 65.433 182 63.5 182ZM89.5371 142.811C88.2455 145.973 87.0368 148.104 85.4365 149.714C83.8402 151.32 81.8168 152.445 78.8291 153.53L77.4795 154.021L78.8418 154.475C82.0582 155.547 84.0203 156.857 85.5264 158.613C87.0508 160.391 88.1326 162.652 89.5459 165.71L90.0801 166.866L90.4756 165.655C91.5888 162.241 92.5448 159.863 93.9424 158.129C95.32 156.419 97.1604 155.296 100.132 154.482L101.592 154.082L100.182 153.534C97.1036 152.338 95.1728 151.084 93.7695 149.451C92.3598 147.811 91.445 145.745 90.4746 142.842L90.0469 141.562L89.5371 142.811ZM130 139C127.791 139 126 140.791 126 143C126 145.209 127.791 147 130 147C132.209 147 134 145.209 134 143C134 140.791 132.209 139 130 139Z" fill="#A8DADC"/>
<path d="M128.5 82C197.259 82 253 137.741 253 206.5C253 275.259 197.259 331 128.5 331C59.7405 331 4 275.259 4 206.5C4 137.741 59.7405 82 128.5 82ZM133 114C133 116.761 130.761 119 128 119C125.239 119 123 116.761 123 114V100.14C68.8932 102.892 25.4459 146.026 22.1963 200H37C39.7614 200 42 202.239 42 205C42 207.761 39.7614 210 37 210H22.0586C22.8731 235.225 32.4585 258.233 47.8662 276.074C72.7336 254.535 90.5987 248.012 125.5 246C160.044 246.183 178.443 252.472 208.902 276.34C224.445 258.462 234.123 235.351 234.941 210H219C216.239 210 214 207.761 214 205C214 202.239 216.239 200 219 200H234.804C231.534 145.694 187.571 102.363 133 100.095V114Z" fill="#2C2C54"/>
<path d="M128.5 0C154.734 0 176 14.9985 176 33.5C176 46.6865 165.196 58.09 149.491 63.5557C147.671 66.6589 144.376 68.7921 140.566 68.9854L140 69V76H141C143.761 76 146 78.2386 146 81V88C146 90.7614 143.761 93 141 93H116C113.239 93 111 90.7614 111 88V81C111 78.2386 113.239 76 116 76H117V69L116.434 68.9854C112.624 68.7921 109.328 66.6591 107.508 63.5557C91.8037 58.0899 81 46.6863 81 33.5C81 14.9985 102.266 0 128.5 0ZM128.5 11C117.381 11 107.782 14.1955 101.252 18.8008C94.6926 23.4269 92 28.7866 92 33.5C92 38.2134 94.6926 43.5731 101.252 48.1992C102.691 49.2141 104.279 50.1597 106 51.0186V47C106 40.9249 110.925 36 117 36H140C146.075 36 151 40.9249 151 47V51.0186C152.721 50.1597 154.309 49.2141 155.748 48.1992C162.307 43.5731 165 38.2134 165 33.5C165 28.7866 162.307 23.4269 155.748 18.8008C149.218 14.1955 139.619 11 128.5 11Z" fill="#2C2C54"/>
</g>
<defs>
<filter id="filter0_d_12_106" x="0" y="0" width="257" height="339" filterUnits="userSpaceOnUse" color-interpolation-filters="sRGB">
<feFlood flood-opacity="0" result="BackgroundImageFix"/>
<feColorMatrix in="SourceAlpha" type="matrix" values="0 0 0 0 0 0 0 0 0 0 0 0 0 0 0 0 0 0 127 0" result="hardAlpha"/>
<feOffset dy="4"/>
<feGaussianBlur stdDeviation="2"/>
<feComposite in2="hardAlpha" operator="out"/>
<feColorMatrix type="matrix" values="0 0 0 0 0 0 0 0 0 0 0 0 0 0 0 0 0 0 0.25 0"/>
<feBlend mode="normal" in2="BackgroundImageFix" result="effect1_dropShadow_12_106"/>
<feBlend mode="normal" in="SourceGraphic" in2="effect1_dropShadow_12_106" result="shape"/>
</filter>
</defs>
</svg>
