<svg width="40" height="40" viewBox="0 0 40 40" fill="none" xmlns="http://www.w3.org/2000/svg">
<g clip-path="url(#clip0_3843_552)">
<path d="M32.0499 25.4334L27.8166 24.9501C26.7999 24.8334 25.7999 25.1834 25.0833 25.9001L22.0166 28.9667C17.2999 26.5667 13.4333 22.7167 11.0333 17.9834L14.1166 14.9001C14.8333 14.1834 15.1833 13.1834 15.0666 12.1667L14.5833 7.96672C14.3833 6.28339 12.9666 5.01672 11.2666 5.01672H8.38328C6.49995 5.01672 4.93328 6.58339 5.04995 8.46672C5.93328 22.7001 17.3166 34.0667 31.5333 34.9501C33.4166 35.0667 34.9833 33.5001 34.9833 31.6167V28.7334C34.9999 27.0501 33.7333 25.6334 32.0499 25.4334Z" fill="#F4F5F0"/>
</g>
<defs>
<clipPath id="clip0_3843_552">
<rect width="40" height="40" fill="white"/>
</clipPath>
</defs>
</svg>
