<svg width="40" height="40" viewBox="0 0 40 40" fill="none" xmlns="http://www.w3.org/2000/svg">
<g clip-path="url(#clip0_3843_572)">
<path d="M30.4999 9.51662C29.8499 8.86662 28.7999 8.86662 28.1499 9.51662L20 17.65L11.85 9.49995C11.2 8.84995 10.15 8.84995 9.49995 9.49995C8.84995 10.15 8.84995 11.2 9.49995 11.85L17.65 20L9.49995 28.1499C8.84995 28.7999 8.84995 29.8499 9.49995 30.4999C10.15 31.1499 11.2 31.1499 11.85 30.4999L20 22.35L28.1499 30.4999C28.7999 31.1499 29.8499 31.1499 30.4999 30.4999C31.1499 29.8499 31.1499 28.7999 30.4999 28.1499L22.35 20L30.4999 11.85C31.1333 11.2166 31.1333 10.15 30.4999 9.51662V9.51662Z" fill="#F4F5F0"/>
</g>
<defs>
<clipPath id="clip0_3843_572">
<rect width="40" height="40" fill="white"/>
</clipPath>
</defs>
</svg>
